<svg width="22" height="17" viewBox="0 0 22 17" fill="none" xmlns="http://www.w3.org/2000/svg">
<path d="M6.625 8.25C6.625 5.78906 8.62891 3.75 11.125 3.75C13.5859 3.75 15.625 5.78906 15.625 8.25C15.625 10.7461 13.5859 12.75 11.125 12.75C8.62891 12.75 6.625 10.7461 6.625 8.25ZM11.125 11.0625C12.6719 11.0625 13.9375 9.83203 13.9375 8.25C13.9375 6.70312 12.6719 5.4375 11.125 5.4375C11.0898 5.4375 11.0547 5.4375 11.0195 5.4375C11.0898 5.64844 11.125 5.82422 11.125 6C11.125 7.26562 10.1055 8.25 8.875 8.25C8.66406 8.25 8.48828 8.25 8.3125 8.17969C8.3125 8.21484 8.3125 8.25 8.3125 8.25C8.3125 9.83203 9.54297 11.0625 11.125 11.0625ZM4.33984 3.22266C5.99219 1.67578 8.27734 0.375 11.125 0.375C13.9375 0.375 16.2227 1.67578 17.875 3.22266C19.5273 4.73438 20.6172 6.5625 21.1445 7.82812C21.25 8.10938 21.25 8.42578 21.1445 8.70703C20.6172 9.9375 19.5273 11.7656 17.875 13.3125C16.2227 14.8594 13.9375 16.125 11.125 16.125C8.27734 16.125 5.99219 14.8594 4.33984 13.3125C2.6875 11.7656 1.59766 9.9375 1.07031 8.70703C0.964844 8.42578 0.964844 8.10938 1.07031 7.82812C1.59766 6.5625 2.6875 4.73438 4.33984 3.22266ZM11.125 2.0625C8.80469 2.0625 6.94141 3.11719 5.5 4.45312C4.12891 5.71875 3.21484 7.19531 2.72266 8.25C3.21484 9.30469 4.12891 10.8164 5.5 12.082C6.94141 13.418 8.80469 14.4375 11.125 14.4375C13.4102 14.4375 15.2734 13.418 16.7148 12.082C18.0859 10.8164 19 9.30469 19.4922 8.25C19 7.19531 18.0859 5.71875 16.7148 4.45312C15.2734 3.11719 13.4102 2.0625 11.125 2.0625Z" fill="#CB3A1A"/>
</svg>
